<svg xmlns="http://www.w3.org/2000/svg" width="852" height="458" viewBox="0 0 852 458" version="1.1"><path d="M 110.750 12.554 C 110.338 12.983, 109.999 14.496, 109.997 15.917 C 109.990 20.785, 104.414 45.865, 103.085 47 C 102.763 47.275, 101.322 49.975, 99.883 53 C 96.920 59.226, 91.122 67.172, 86.569 71.245 C 79.483 77.584, 76.308 80.034, 73 81.718 C 71.075 82.698, 69.350 83.837, 69.167 84.250 C 68.983 84.662, 68.151 85, 67.318 85 C 66.484 85, 64.384 85.650, 62.651 86.444 C 54.558 90.154, 47.477 91.405, 34.302 91.453 C 18.787 91.508, 20.034 90.224, 20.014 106.168 C 19.998 118.118, 20.411 120, 23.048 120 C 24.057 120, 25.160 120.450, 25.500 121 C 25.840 121.550, 27.035 122, 28.155 122 C 31.176 122, 35.979 124.967, 40.582 129.677 C 43.696 132.864, 45.086 135.414, 46.446 140.439 C 47.426 144.061, 47.985 148.031, 47.688 149.262 C 45.285 159.202, 44.537 160.688, 39.422 165.694 C 35.827 169.212, 32.963 171.104, 30.546 171.557 C 28.584 171.925, 26.731 172.626, 26.430 173.113 C 26.129 173.601, 24.792 174, 23.460 174 C 20.258 174, 19.851 175.944, 20.209 189.500 L 20.500 200.500 25 201.903 C 27.475 202.674, 31.075 204.024, 33 204.903 C 36.726 206.603, 45 214.678, 45 216.613 C 45 217.250, 45.733 220.041, 46.630 222.816 C 48.159 227.551, 48.146 228.283, 46.425 234.681 C 44.889 240.386, 43.766 242.323, 39.545 246.540 C 35.413 250.668, 33.234 251.955, 27.500 253.651 L 20.500 255.722 20.210 267.111 C 19.822 282.314, 19.921 282.611, 25.644 283.469 C 35.188 284.901, 43.065 292.145, 46.079 302.264 C 48.109 309.082, 48.122 309.506, 46.485 315.405 C 45.555 318.757, 43.378 323.384, 41.647 325.687 C 38.337 330.090, 29.959 335, 25.754 335 C 20.456 335, 19.761 336.649, 19.327 350.254 C 19.029 359.582, 19.247 363.035, 20.171 363.606 C 20.857 364.029, 26.611 364.456, 32.959 364.554 C 50.707 364.827, 65.647 369.268, 76.378 377.459 C 78.930 379.407, 81.217 381, 81.461 381 C 82.107 381, 88.744 387.941, 91.303 391.294 C 92.511 392.877, 94.051 394.765, 94.723 395.488 C 96.895 397.824, 103.741 411.541, 104.497 415.073 C 104.901 416.958, 105.583 418.950, 106.014 419.500 C 106.444 420.050, 107.371 425.573, 108.073 431.773 C 108.776 437.973, 109.834 443.427, 110.425 443.894 C 112.127 445.237, 747.559 446.041, 748.898 444.702 C 749.504 444.096, 750 441.359, 750 438.621 C 750 435.883, 750.405 432.260, 750.901 430.571 C 751.396 428.882, 752.504 424.480, 753.363 420.789 C 755.142 413.142, 759.522 403.449, 764.500 396.141 C 765.675 394.416, 779.027 380.980, 781.086 379.450 C 781.864 378.872, 784.075 377.522, 786 376.450 C 787.925 375.377, 789.725 374.239, 790 373.919 C 791.013 372.744, 805.681 368.029, 811.434 367.030 C 814.697 366.464, 821.920 366, 827.484 366 C 834.019 366, 838.025 365.575, 838.800 364.800 C 840.130 363.470, 840.512 341.238, 839.235 339.500 C 838.104 337.961, 834.228 336.002, 832.264 335.978 C 828.162 335.927, 817 328.874, 817 326.334 C 817 325.820, 816.474 324.874, 815.832 324.232 C 813.806 322.206, 812.031 315.696, 812.015 310.236 C 812.001 305.454, 812.542 303.537, 815.184 299 C 815.665 298.175, 816.297 296.808, 816.590 295.962 C 818.094 291.615, 830.912 284.003, 836.731 284.001 C 839.717 284, 840.144 281.837, 839.791 268.500 L 839.500 257.500 835 256.156 C 822.106 252.307, 816.579 247.323, 813.087 236.395 C 811.249 230.642, 812.845 218.354, 815.646 216.700 C 816.391 216.260, 817 215.332, 817 214.637 C 817 213.061, 822.188 208, 823.805 208 C 824.462 208, 825 207.632, 825 207.183 C 825 206.304, 834.660 203, 837.231 203 C 838.086 203, 839.059 202.288, 839.393 201.418 C 840.256 199.170, 840.118 177.734, 839.232 176.342 C 838.827 175.705, 836.696 174.878, 834.498 174.504 C 823.800 172.685, 816.736 166.211, 813.139 154.929 C 810.285 145.980, 814.039 134.299, 821.720 128.228 C 825.496 125.244, 833.417 122, 836.928 122 C 837.950 122, 839.059 121.288, 839.393 120.418 C 840.280 118.105, 840.106 95.715, 839.189 94.272 C 838.642 93.411, 834.984 93.063, 826.954 93.110 C 814.616 93.183, 802.045 90.789, 794.724 86.973 C 792.642 85.888, 790.277 85, 789.469 85 C 788.661 85, 788 84.633, 788 84.184 C 788 83.735, 786.241 82.380, 784.092 81.172 C 780.649 79.237, 766 65.703, 766 64.457 C 766 64.196, 764.650 62.119, 763 59.841 C 761.350 57.564, 760 55.092, 760 54.350 C 760 53.607, 759.586 53, 759.079 53 C 758.573 53, 757.845 51.537, 757.462 49.750 C 757.078 47.962, 756.483 46.050, 756.139 45.500 C 754.472 42.836, 752.344 32.854, 750.325 18.227 C 750 15.877, 749.457 13.789, 749.117 13.586 C 747.855 12.834, 111.471 11.806, 110.750 12.554 M 113.014 15 C 112.577 15.275, 111.980 17.750, 111.688 20.500 C 110.809 28.774, 108.883 38.439, 107.912 39.450 C 107.411 39.973, 107 41.177, 107 42.127 C 107 44.966, 98.959 60.132, 94.606 65.500 C 90.566 70.483, 84.237 77, 83.436 77 C 83.205 77, 81.914 77.957, 80.568 79.127 C 76.316 82.825, 63.147 89.438, 56.765 91.081 C 49.755 92.886, 39.993 93.951, 31.592 93.827 C 21.396 93.677, 21.183 93.957, 21.390 107.274 C 21.534 116.588, 21.721 117.513, 23.524 117.838 C 24.611 118.034, 25.927 118.600, 26.450 119.097 C 26.972 119.594, 28.203 120, 29.185 120 C 32.400 120, 40.974 126.102, 44.060 130.586 C 50.384 139.778, 51.654 149.121, 47.651 157 C 41.835 168.448, 38.323 171.602, 28.086 174.576 C 25.013 175.469, 22.169 176.717, 21.765 177.349 C 21.361 177.982, 21.024 182.832, 21.015 188.128 C 20.999 198.516, 21.371 199.357, 26.506 200.515 C 35.085 202.449, 42.978 208.368, 46.283 215.346 C 49.823 222.821, 51.216 232.130, 49 233.500 C 48.450 233.840, 48 235.035, 48 236.155 C 48 241.250, 40.733 250.085, 34.002 253.173 C 31.526 254.309, 28.719 255.635, 27.764 256.119 C 26.809 256.604, 25.141 257, 24.059 257 C 21.514 257, 20.794 260.771, 21.196 271.986 L 21.500 280.471 25.231 281.075 C 29.674 281.794, 37 284.954, 37 286.152 C 37 286.618, 37.503 287, 38.118 287 C 40.933 287, 46.632 295.762, 49.069 303.836 C 51.599 312.223, 46.035 326.689, 38.210 332.065 C 33.958 334.985, 26.364 337.998, 23.250 337.999 C 21.048 338, 21 338.243, 21 349.441 C 21 356.963, 21.393 361.125, 22.146 361.590 C 22.777 361.980, 26.574 362.203, 30.585 362.086 C 37.807 361.875, 53.890 364.280, 57.236 366.071 C 58.191 366.582, 59.506 367, 60.157 367 C 61.795 367, 74.201 373.095, 75.821 374.695 C 76.548 375.413, 77.673 376.005, 78.321 376.011 C 79.811 376.024, 96 392.399, 96 393.892 C 96 394.501, 96.420 395, 96.933 395 C 97.446 395, 98.181 396.012, 98.567 397.250 C 98.954 398.488, 99.546 399.725, 99.885 400 C 100.923 400.843, 103.894 407.341, 104.576 410.259 C 104.931 411.777, 105.622 413.266, 106.111 413.568 C 106.600 413.871, 107 415.126, 107 416.359 C 107 417.592, 107.448 419.048, 107.995 419.595 C 108.543 420.143, 109.259 424.170, 109.586 428.545 C 109.913 432.920, 110.625 437.962, 111.168 439.750 L 112.155 443 404.828 443.020 C 565.797 443.031, 706.950 443.056, 718.500 443.076 C 751.486 443.134, 747.997 443.527, 748.017 439.750 C 748.043 435.081, 750.673 420.114, 752.191 416 C 752.902 414.075, 754.500 410.520, 755.742 408.101 C 756.984 405.682, 758 403.332, 758 402.880 C 758 401.840, 764.244 392.614, 765.250 392.167 C 765.662 391.983, 766 391.196, 766 390.417 C 766 389.637, 766.413 389, 766.918 389 C 767.423 389, 770.011 386.862, 772.668 384.250 C 778.480 378.537, 786.229 373, 788.413 373 C 789.286 373, 790 372.550, 790 372 C 790 371.450, 790.563 370.997, 791.250 370.994 C 791.938 370.990, 793.757 370.332, 795.292 369.531 C 796.828 368.730, 799.753 367.774, 801.792 367.407 C 803.832 367.040, 806.064 366.291, 806.754 365.744 C 807.443 365.197, 814.363 364.572, 822.131 364.355 C 829.899 364.138, 836.664 363.707, 837.166 363.398 C 837.667 363.088, 838.011 357.941, 837.929 351.960 C 837.789 341.723, 837.642 340.995, 835.425 339.543 C 834.130 338.694, 832.191 338, 831.116 338 C 827.009 338, 819.642 332.498, 813.407 324.774 C 811.507 322.421, 810.654 317.743, 810.682 309.835 C 810.720 299.251, 814.618 292.045, 823.192 286.706 C 826.428 284.691, 833.821 282.035, 836.250 282.015 C 837.809 282.002, 838 280.810, 838 271.122 C 838 259.052, 837.653 258.305, 831.589 257.321 C 829.615 257, 828 256.396, 828 255.978 C 828 255.559, 826.914 254.944, 825.587 254.611 C 822.676 253.881, 814.831 246.479, 813.280 243 C 810.198 236.089, 809.695 229.303, 811.611 220.515 C 813.339 212.593, 821.187 205.429, 831.820 202.066 L 837.500 200.269 837.793 190.885 C 838.150 179.463, 837.640 177, 834.917 177 C 831.604 177, 822.615 172.446, 818.770 168.819 C 813.732 164.068, 811.113 158.486, 810.684 151.586 C 810.271 144.954, 811.523 136.671, 813.015 136.167 C 813.557 135.983, 814 135.308, 814.001 134.667 C 814.002 132.491, 820.478 126.229, 825 124.028 C 827.475 122.824, 830.281 121.425, 831.236 120.920 C 832.191 120.414, 834.118 120, 835.517 120 L 838.062 120 837.781 107.773 L 837.500 95.545 829.500 95.841 C 819.358 96.217, 803.766 93.149, 794 88.855 C 785.881 85.286, 777.659 79.539, 770.521 72.444 C 765.895 67.846, 758 56.679, 758 54.734 C 758 54.025, 757.358 52.528, 756.573 51.408 C 753.165 46.541, 749.332 31.061, 748.624 19.299 C 748.518 17.538, 748.214 15.881, 747.949 15.616 C 747.306 14.973, 114.033 14.359, 113.014 15" stroke="none" fill="#fbe9ad" fill-rule="evenodd"/><path d="M 113.014 15 C 112.577 15.275, 111.980 17.750, 111.688 20.500 C 110.809 28.774, 108.883 38.439, 107.912 39.450 C 107.411 39.973, 107 41.177, 107 42.127 C 107 44.966, 98.959 60.132, 94.606 65.500 C 90.566 70.483, 84.237 77, 83.436 77 C 83.205 77, 81.914 77.957, 80.568 79.127 C 76.316 82.825, 63.147 89.438, 56.765 91.081 C 49.755 92.886, 39.993 93.951, 31.592 93.827 C 21.396 93.677, 21.183 93.957, 21.390 107.274 C 21.534 116.588, 21.721 117.513, 23.524 117.838 C 24.611 118.034, 25.927 118.600, 26.450 119.097 C 26.972 119.594, 28.203 120, 29.185 120 C 32.400 120, 40.974 126.102, 44.060 130.586 C 50.384 139.778, 51.654 149.121, 47.651 157 C 41.835 168.448, 38.323 171.602, 28.086 174.576 C 25.013 175.469, 22.169 176.717, 21.765 177.349 C 21.361 177.982, 21.024 182.832, 21.015 188.128 C 20.999 198.516, 21.371 199.357, 26.506 200.515 C 35.085 202.449, 42.978 208.368, 46.283 215.346 C 49.823 222.821, 51.216 232.130, 49 233.500 C 48.450 233.840, 48 235.035, 48 236.155 C 48 241.250, 40.733 250.085, 34.002 253.173 C 31.526 254.309, 28.719 255.635, 27.764 256.119 C 26.809 256.604, 25.141 257, 24.059 257 C 21.514 257, 20.794 260.771, 21.196 271.986 L 21.500 280.471 25.231 281.075 C 29.674 281.794, 37 284.954, 37 286.152 C 37 286.618, 37.503 287, 38.118 287 C 40.933 287, 46.632 295.762, 49.069 303.836 C 51.599 312.223, 46.035 326.689, 38.210 332.065 C 33.958 334.985, 26.364 337.998, 23.250 337.999 C 21.048 338, 21 338.243, 21 349.441 C 21 356.963, 21.393 361.125, 22.146 361.590 C 22.777 361.980, 26.574 362.203, 30.585 362.086 C 37.807 361.875, 53.890 364.280, 57.236 366.071 C 58.191 366.582, 59.506 367, 60.157 367 C 61.795 367, 74.201 373.095, 75.821 374.695 C 76.548 375.413, 77.673 376.005, 78.321 376.011 C 79.811 376.024, 96 392.399, 96 393.892 C 96 394.501, 96.420 395, 96.933 395 C 97.446 395, 98.181 396.012, 98.567 397.250 C 98.954 398.488, 99.546 399.725, 99.885 400 C 100.923 400.843, 103.894 407.341, 104.576 410.259 C 104.931 411.777, 105.622 413.266, 106.111 413.568 C 106.600 413.871, 107 415.126, 107 416.359 C 107 417.592, 107.448 419.048, 107.995 419.595 C 108.543 420.143, 109.259 424.170, 109.586 428.545 C 109.913 432.920, 110.625 437.962, 111.168 439.750 L 112.155 443 404.828 443.020 C 565.797 443.031, 706.950 443.056, 718.500 443.076 C 751.486 443.134, 747.997 443.527, 748.017 439.750 C 748.043 435.081, 750.673 420.114, 752.191 416 C 752.902 414.075, 754.500 410.520, 755.742 408.101 C 756.984 405.682, 758 403.332, 758 402.880 C 758 401.840, 764.244 392.614, 765.250 392.167 C 765.662 391.983, 766 391.196, 766 390.417 C 766 389.637, 766.413 389, 766.918 389 C 767.423 389, 770.011 386.862, 772.668 384.250 C 778.480 378.537, 786.229 373, 788.413 373 C 789.286 373, 790 372.550, 790 372 C 790 371.450, 790.563 370.997, 791.250 370.994 C 791.938 370.990, 793.757 370.332, 795.292 369.531 C 796.828 368.730, 799.753 367.774, 801.792 367.407 C 803.832 367.040, 806.064 366.291, 806.754 365.744 C 807.443 365.197, 814.363 364.572, 822.131 364.355 C 829.899 364.138, 836.664 363.707, 837.166 363.398 C 837.667 363.088, 838.011 357.941, 837.929 351.960 C 837.789 341.723, 837.642 340.995, 835.425 339.543 C 834.130 338.694, 832.191 338, 831.116 338 C 827.009 338, 819.642 332.498, 813.407 324.774 C 811.507 322.421, 810.654 317.743, 810.682 309.835 C 810.720 299.251, 814.618 292.045, 823.192 286.706 C 826.428 284.691, 833.821 282.035, 836.250 282.015 C 837.809 282.002, 838 280.810, 838 271.122 C 838 259.052, 837.653 258.305, 831.589 257.321 C 829.615 257, 828 256.396, 828 255.978 C 828 255.559, 826.914 254.944, 825.587 254.611 C 822.676 253.881, 814.831 246.479, 813.280 243 C 810.198 236.089, 809.695 229.303, 811.611 220.515 C 813.339 212.593, 821.187 205.429, 831.820 202.066 L 837.500 200.269 837.793 190.885 C 838.150 179.463, 837.640 177, 834.917 177 C 831.604 177, 822.615 172.446, 818.770 168.819 C 813.732 164.068, 811.113 158.486, 810.684 151.586 C 810.271 144.954, 811.523 136.671, 813.015 136.167 C 813.557 135.983, 814 135.308, 814.001 134.667 C 814.002 132.491, 820.478 126.229, 825 124.028 C 827.475 122.824, 830.281 121.425, 831.236 120.920 C 832.191 120.414, 834.118 120, 835.517 120 L 838.062 120 837.781 107.773 L 837.500 95.545 829.500 95.841 C 819.358 96.217, 803.766 93.149, 794 88.855 C 785.881 85.286, 777.659 79.539, 770.521 72.444 C 765.895 67.846, 758 56.679, 758 54.734 C 758 54.025, 757.358 52.528, 756.573 51.408 C 753.165 46.541, 749.332 31.061, 748.624 19.299 C 748.518 17.538, 748.214 15.881, 747.949 15.616 C 747.306 14.973, 114.033 14.359, 113.014 15" stroke="none" fill="#fbdc7c" fill-rule="evenodd"/></svg>